<svg xmlns="http://www.w3.org/2000/svg" height="64" viewBox="0 0 58 64" width="58">
    <path d="M0 0h58v64H0z" fill="none"/>
    <path d="M52.8 57v3h.8c1.1 0 1.6-.6 1.6-1.5 0-.8-.3-1.5-1.8-1.5h-.6zm3 6.8a46.3 46.3 0 01-2.2-3.3h-.8v2.7l1.2.2v.4h-3.8v-.4l1.3-.2V57l-1.3-.1v-.5H53.6c1.6 0 3 .6 3 2 0 1-.8 1.6-1.7 1.9l2.3 3h.8v.5h-2.1zM38.2 57l-1.3-.1v-.5h3.9v.5h-1.3v6.3l1.3.2v.4h-3.9v-.4l1.3-.2V57zm-3 0l-2.4 6.9h-1l-2.4-7h-1v-.5H32v.5h-1.2l1.8 5.6 1.8-5.5-1.2-.1v-.5H36v.5h-.8zM1.3 63.2V57L0 56.9v-.5h5.2l.1-.4h.5v2.1h-.5L5.1 57H2.6v2.8h1.8l.2-.8H5v2.2h-.5l-.2-.8H2.6V63.2h1.7l1-.1c.2-.2.4-.6.5-1.4h.6L6 63.8H0v-.4l1.3-.2zM19.9 62c0 1.3-1 2-2.4 2-.7 0-1.4-.2-1.9-.5l-.1.6H15v-2.5h.5l.2 1.1c.4.5 1.1.8 1.7.8.8 0 1.3-.5 1.3-1.2 0-1.7-3.6-1.7-3.6-4 0-1.2 1-2 2.3-2 .5 0 1 .2 1.4.3l.2-.5h.5v2.2H19a8.5 8.5 0 00-.2-1c-.4-.2-.8-.4-1.2-.4-.7 0-1.3.4-1.3 1.1 0 1.6 3.6 1.7 3.6 4zM9.2 63.2V57l-1.3-.1v-.5h3.9v.5h-1.3v6.3h1.3l1-.1c.1-.2.3-.6.5-1.7h.6l-.2 2.4H7.8v-.4l1.4-.2zm13.5 0V57l-1.3-.1v-.5h5.2l.1-.4h.5v2.1h-.5l-.2-1.1H24v2.8H26l.1-.8h.5v2.2H26l-.1-.8H24V63.2H26l1-.1c.2-.2.3-.6.5-1.4h.5l-.2 2.1h-6.3v-.4l1.3-.2zm21 0V57l-1.4-.1v-.5h5.2l.1-.4h.6v2.1h-.6l-.2-1.1H45v2.8h1.9l.1-.8h.5v2.2H47l-.1-.8h-1.9V63.2h1.8l1-.1.5-1.4h.5l-.2 2.1h-6.2v-.4l1.3-.2z" fill="#FF6C00"/>
    <path d="M16.2 24.2c.6-.4 1-.8 1-1.3v-.3a.8.8 0 00-.4 0c-.3.3-.8.8-1.2 1l-.6.1s-.1 0 0-.1l1-.8c.2-.2.1-.4-.2-.5-.4 0-.9.1-1.2.4-.7.6-1 1.7-1 2.5l-.3.1c-.1-.5-.2-1 0-1.6l.3-.7c0-.2 0-.4-.2-.5l-.2.1c-.3.9-.8 1.3-1.6 1.8l-.9.5c-.3-.1-.5-.3-.8-.7l-1-1.4a.5.5 0 00-.4-.2H7a2 2 0 01-1.3-.9c-.3-.4-.4-.4-.7 0l-1 .7a1.7 1.7 0 01-.2.3c-.3.1-.4 0-.5-.2-.3-.8-.4-1.6-.4-2.5v-1.3a3 3 0 00-.7-.5c-.8-.3-1.4-.9-2-1.5a.6.6 0 01-.2-.4s0-.3.3-.4c.4-.3 1-.4 1.5-.4l1.6.2c.4 0 .5-.3.4-.8-.1-1.2.3-2 1-2.6.5-.6.4-1.2.3-1.8 0-.3-.1-.4-.4-.4-.8.2-.8.2-1 1 0 .4-.2.8-.4 1.2L2 13.7c-.1.2-.3.2-.4 0a2.6 2.6 0 01-1-3.2c0-.4.3-.8.5-1v.3l-.2.7c-.3.9-.3 1.7.3 2.5l.2.1h.3l1-1c.5-.5.6-1 .5-1.6a10 10 0 00-.2-.7v-.2l-.3.1c-.4.4-.5.7-.7 1.3a.5.5 0 01-.2.3v-.4c0-.6.2-1.1.6-1.5.2-.3.2-.4 0-.5-1-.2-1.7-.5-2.3-1.3a.7.7 0 01-.2-.4c0-.2 0-.3.3-.4.7-.5 1.5-1 2.3-1.3h.6a28 28 0 01-1-3.6l.3-1h.7l1 .6c.3.2.4.2.6-.1C5 .9 5.5.4 6 0l.4-.1c.2 0 .3.1.5.4l.8 1.5c.3.5.6.5 1 .2l1.5-1c.4-.4.5-.4 1-.1.4.3.9.8 1.1 1.3 0 .1 1-.4 1.1-.7 0-.4.2-.7.3-1 .3-.5.6-.6.8-.6.3 0 .7.3 1 .5l.9.4c.3.3.4.3.6-.1.3-.4.5-.5 1-.5 1.2 0 2.2.3 3 1.2 0 .2.2.2.4 0 .3-.3.6-.4 1.1-.4h1c.3 0 .4 0 .7-.3.2-.4.6-.8 1-.8.7 0 1.7 1 2.1 1.9l-.2.1a4.5 4.5 0 00-.7-.6 6.4 6.4 0 00-1.2-.6c-.4-.2-.6 0-.6.5l.4 1.6c.1.5.6.9 1 1.1v.2H25c-.6.1-1.1.4-1.7.6-.2.1-.2.2 0 .4l1 .9c.9.7 1.8.5 3 .1l.4-.1c.5-.1 1 0 1.3.4l1.1 1c.3.3.4.6.2 1a53 53 0 01-1.1 2l-.3.3c-.1 0-.2-.3-.1-.6l.2-.2a4.2 4.2 0 00.7-1.8c0-.5-.2-.8-.7-.6l-.5.1c-.2.1-.3 0-.3-.2l-.2-.4c-.1-.3-.3-.4-.6-.2a3 3 0 00-1 1 3.7 3.7 0 00-.4 2.3l.1.2a.4.4 0 00.2-.2c.2-.3.2-.7.3-1l.1-.8h.3c.3 0 .4.1.4.3-.5.6-.7 1.4-1 2.2l-.4.2-.4-.2-.6-1.5c-.3-1.6-.4-1.7-.5-1.8A10 10 0 0022 4.8l-.2-.2.3-.1.9-.4c.4-.1.7-.4.9-.8l.3-.6c.2-.3.2-.5 0-.7-.5-.5-1-.6-1.6-.5-.6.1-1 .6-1.2 1.2v.6c0 .3 0 .4.3.2l1.2-.8.2-.1c-.2.5-.5.9-1 1.1a13.8 13.8 0 01-.9.6c-.2.1-.3 0-.4-.2V3c0-1-.6-1.8-1.4-2.1l-.8-.4a.8.8 0 00-.3.7c0 .6 0 1 .2 1.7l.1.6c.1.3.5.4.8.4.2 0 .4-.3.1-.8l-.4-.7-.1-.3V2l.2.1a5.3 5.3 0 011.1 2c.2.2 0 .3-.2.4-.7 0-1.4 0-2 .2-1 .2-1.4.6-1.8 1.3l-.2.7 1.4-.1a4 4 0 001.4-.5l1-1h.4c1.3.6 2.2 1.4 2.8 2.7l.2.3v.2h-.1l-.7-.2-.2-.3-.2-.6c-.2-.2-.2-.2-.5-.2l-.4.2c-.2.1-.3.1-.4 0l-.2-1c0-.3-.2-.3-.5-.2a3 3 0 00-1.4 1.4c-.3.6-.4 1-.1 2.5 0 .3.3.7.6.8l2.6.8h.1v.2l-1 .7c-.3 0-.3 0-.4-.2a2 2 0 00-1-1c-.3 0-.3 0-.4.2l-.4 1c0 .1-.1.2-.3 0-.7-.5-1.5-.6-2.4-.4-.5 0-.7.1-.6.6.2.7.6 1.2 1.2 1.6l1.1.6a.6.6 0 00.3-.2c.2-.2.1-.4 0-.6l-1.6-1 .3-.3h.3c.7.4 1.2 1 1.8 1.4.2.3.4.3.5-.1l.3-1.1v-.1h.2l.1 1-.2.9c0 .3-.3.4-.5.4-.7-.1-1.3.1-1.9.3a5.6 5.6 0 01-.9.1l-.6-.1-.1-.2a1 1 0 01.3 0c.3 0 .7 0 1-.2a1.4 1.4 0 00-.4-.3c-.6-.5-1.3 0-1.9.3-.3.2-.3.2-.2.6.2.5.6.6 1 .6h1.3l1-.5h.4l-.1.4-.9.5-.2.1-.3.3c.1.1.2.3.4.3l1.1.3c.7.1 1 0 1-.7l.4-1c.1-.2.3-.2.4 0l1.3 2.3c0 .2 0 .3-.2.3a63.5 63.5 0 01-2.9-.4c-.3 0-.6-.3-1-.4-.4-.2-1-.4-1.5-.4s-.8.3-.6.8l.7 2c.2.4.7.6 1.2.7.2 0 .1-.2 0-.3l-.8-1.7v-.2h.2c.4.8.9 1.4 1.3 2v.5l-.4.1c-1-.1-2-.4-2.9-.8l-.2-.4h.6c.2 0 .4 0 .3-.2a1 1 0 00-.5-.4 6 6 0 00-1.5-.6c-.3 0-.5.1-.4.4 0 .3.2.6.4 1a.5.5 0 010 .3l-1.1-.2c-.8-.4-.8-.6-.8-1.5v-.7c.1-.3.2-.4.4-.3l2.3.7.7.4c.2 0 .3 0 .3-.2a.7.7 0 00-.4-.6l-2.5-1c-.2-.1-.3-.2-.2-.4.4-.6.5-1.2.4-1.9l.1-.2.3.2a.6.6 0 010 .3c.1.6.5 1 1 1.4.7.8.7.8 1.8.5l.3-.2-.3-.3-.7-.2c-.7-.3-.9-.8-.7-1.6l.7-2 .1-1c0-.3.2-.3.3-.3l1.6-.1c.4 0 .8-.5 1-.8l.5-.8a1 1 0 00-.5-.3l-.6.1c.2-.4.3-.7.3-1.1l-.1-.8c-.1-.2-.3-.3-.5-.1-.4.3-.7.7-.8 1.2a24.9 24.9 0 00-.3 1.6 1.5 1.5 0 00.3-.2l.5-.2h.4c-.1.2-.3.2-.4.3a3.4 3.4 0 01-.8.5c-.3.1-.4 0-.3-.3l.1-.8-.1-1.2-.6-1.6a4.5 4.5 0 00-.4-.7c-.1-.2-.3-.1-.6.3-.5.5-.7 1-.9 2v.2l-.4.3-.2-.1.3-1.1c0-.5-.2-.8-.5-1l-.8.6a1 1 0 000 1.2c.4.6.4 1.3.2 2.1L11.1 9l-.5-1c-.2-.2-.3-.7-.2-1 .2-.3.9-.4 1-.8.3-.3.2-.5.5-.9.2-.2.6-.7 1-.5.8.5 1.8.6 2.8.4.4 0 .5 0 .7-.5 0-.3.1 0 .5-.2.6-.2.9-.7.9-1.4V2.1l-.3-1h-.3l-.9 1.4-.3.7c0 .1-.2.2-.3 0a3.3 3.3 0 00-.6-.5C15 2.5 15 2 15 1.5c.2 0 .3.2.4.4 0 .3.1.6.4.7.2.2.5-.4.5-.9a.8.8 0 00-.1-.3c-.3-.5-1-1-1.5-1s-.9.7-.7 1.3l.2.4c-1.2.6-1.5 1-2 1.6 0 .1-.1.3 0 .4.2.4 0 .6-.4.9a4.2 4.2 0 01-.7.3h-.2a.3.3 0 010-.2l1-2c.3-.7-.4-1.4-1-1.6-.3-.2-.7-.1-1 .2-.6 1-.6 2.1.1 3.2l.1.1c.1.2.1.3-.1.3l-1.6.1a2.1 2.1 0 00-1.6.9c-.1.2-.3.2-.4 0-.5-.2-.8-.1-1.2.1L3.7 7l-.5.1L3 7s0-.2.2-.2l.9-.2.3-.1.1-.4-.3-.2A5.3 5.3 0 003 6C2.1 6 1.5 6.4.9 7c-.3.3-.3.6 0 .8.7.5 1.4 1 2.4.8L4 8l.7-.7C5 7 5.6 6.5 6 7c.6.7.7 1.5 1.7 1.3.4 0 .5-.1.7-.5v-.4c0-.3 0-.4-.4-.3l-.5.2h-.3l.1-.4.6-.3a41.6 41.6 0 012.2-.5.6.6 0 01.2 0v.2c-.3.6-.7.8-1.2 1l-.2.4c-.4 1-.2 2 .5 2.8l.8.7c.6.3.7.8.9 1.3l.4 1c-.4.3-.8.6-1 1-.1.2-.2.1-.3 0l-.2-.7c-.3-.6-.7-1-1.4-1l-.8-.2c-.3 0-.5.1-.6.5-.2.8-.2 1.6.6 2.4l.6.4a4 4 0 00-.4.2 4 4 0 00-1 .4 2.7 2.7 0 00-.8.7c0 .2.4.4.7.5 1 .4 1.8.4 2.7 0 .5-.1.5 0 .6.4l.2 1.1c.1.3 0 .4-.3.3-1.4-.4-3-1-4.2-1.8a7 7 0 00-1.5-.5c-.2.1-.4.3-.5.2-.4 0-1.2-.3-1.5-.5a.4.4 0 01-.2-.2.4.4 0 01.2 0l1.8.1.3-.1a.5.5 0 00-.2-.2c-1-.8-2.1-.6-3.2-.4-.4 0-.5.2-.2.5.6.8 1.3 1.4 2.3 1.5h2c1.1.7 2.3 1.4 3.6 1.8v.2c-.5 0-1 0-1.4.2l-1.3.2c-.4 0-.5.4-.3.8.4.5 1 .8 1.6 1 .5.1 1 0 1.4-.1.6-.3.9-.7 1.4-1 .3-.2.8 0 1.1.1l1.4.4c.7.2 1.5.2 2.3.3h3.2a7.9 7.9 0 00-.4 1.2c-.1.2 0 .3.2.3.3 0 .7-.3.9-.6v-.8l.2-.3.5.1-.3.8-.2.4.5.1c.7 0 .8-.1.8-.8a3.9 3.9 0 00-.1-.6c0-.5 0-.9.5-1.1.4-.2.9-.2 1.3-.1 1.4.1 2.9 1 3.8 1.7.6.4 0 1 0 1.9v1.3c0 .4.2.7.3.8l1.6 1c.5.4.7.6 1.4.8h.4a1.6 1.6 0 000-.6l-1.2-.5-.3-.2.4-.2.8-.2a.5.5 0 00.2-.1l-.2-.2-1-.3c-.1 0-.2 0-.2-.2a1 1 0 01.3-.2h.9a.4.4 0 00.2-.2l-.2-.2-1-.5-.2-.3h1.1l.2-.2a.6.6 0 00-.1-.2l-.8-.5c-.2 0-.3-.2-.3-.4h.4l.7.2h.3a.3.3 0 00-.1-.3l-.4-.2-.6-.6c-.1 0 0-.2 0-.2h.1l.8.2a.7.7 0 00.3 0l-.1-.3-.7-.5v-.4l.3.1h.4l.3.1a.4.4 0 000-.2 5 5 0 00-.2-.6V20h.2l.9.3h.3L31 20l-.2-.4v-.2h.3l1 .5h.3l-.3-.6.1-.1.7.2.7.1a.5.5 0 00.2 0l-.2-.6a.5.5 0 01.3 0c.3 0 .5.3.9.3l1.2-.1c1.6-.3 2.8-.4 4.3-.8a15.5 15.5 0 001.9-.8h.2c.4 1.1 1.3 1.5 2.2 1.6h.9c.2 0 .3 0 .2-.3-.2-1-.7-1.7-1.4-2.4l-.6-.3c-.2-.3-.2-.6 0-.8l1.7-1a2 2 0 00.9-1.8c0-.2 0-.4-.3-.5a.8.8 0 00-.3.2l-.4.9-.2.2-.4.2V13c0-.2 0-.3.2-.5l.9-1v-.3h-.2a2 2 0 00-1.1.5l-.7 1-1 2.3-.2.7c-.1.4-.1.6.2.8l1.8 1 .2.3h-.3a2 2 0 01-1.5-.6l-.6-.4-1.8.5c-.4 0-.6.2-.8.5 0 .2-.3.3-.6.2l-1.2-.4c-.5-.1-1.1 0-1.7.1H36c-.2.1-.3 0-.2-.2l.2-1v-.4c-.2 0-.4 0-.5.2l-.5 1c-.2.2-.2.2-.5.1a5.1 5.1 0 01-1.1-.7l-.7-1.1c0-.2 0-.2.2-.2l1 .8.3.6h.4v-.5c.2-.4.1-1-.2-1.3l-1.4-1c-.8-.5-.9-.4-1.1 0a3 3 0 00-.4 1.5c.2 1.2.5 1.7 2 2.4a.4.4 0 01-.2.2c0 .1-.1.2-.3.2l-1.8-.1c-.2 0-.3 0-.3-.2-.5-1.8-.2-3.7.7-5.4l.3-.3a18 18 0 011.1-.6c.2 0 .3 0 .4.2l.2 1.2.1.6c.3 0 .5-.1.6-.3.4-.7.6-1.6.2-2.4 0-.1 0-.3.2-.3l3-1.3c.5 0 1.3 0 2.3.2.2 0 .5.4 1 .6-.6.2-1.2.7-1.7 1.2-.2.1-.3.3-.2.7l.9-.2c.5-.2.7-.2 1.1-.2h.3a.5.5 0 01-.1.3c-.2.1-.4 0-.5.2-.2 0-.3.2-.2.4l.4.3c.5 0 1-.1 1.4-.3.2-.2 1-1.3.6-1.4-.3 0-.9 0-1.1-.2a.5.5 0 01.3-.3l1 .1h2c.2-.2.3-.3.2-.4a3 3 0 00-1.8-1.6H39l-.3-.2.2-.1 1-.6c.4-.3.7-.7.9-1.3a.6.6 0 000-.3c-.3-1.1-1-2-2.2-2l-.6-.2c-.2 0-.3.1-.3.3v1c0 .2 0 .3.3.3l1.7.5c.3.2.4.4 0 .7l-1 .6c0 .1-.1 0-.1 0l-.1-.8a.5.5 0 00-.1-.2.6.6 0 00-.5.4 5.4 5.4 0 00-.3.9c0 .4-.3.6-.7.8-.1 0-.3 0-.3-.2l.2-.6a4 4 0 00.3-2V4.6a.4.4 0 01.2-.5l1.7-.6c.1 0 .3 0 .5.2L40.7 5c.3.4.4.4.6 0 .3-.3.5-.7 1-.9.1 0 .1-.2-.1-.3l-1.3-.4-.3-.1-.2-.2.2-.2 1.8-.7.4-.1c.2-.1.3-.3.3-.5l-.2-.7c0-.3-.2-.4-.4-.5-.5 0-1 0-1.4.2a3.8 3.8 0 00-1 .7.6.6 0 000 .6.7.7 0 00.2 0 4.4 4.4 0 001.1-.5l.4-.4.2.3a35.9 35.9 0 01-3.3 1.5l-2 .6h-.2v-.2a58 58 0 011.2-1.6V2l-.3.6v.2h.2c.6-.1 1.2-.8 1.2-1.5 0-.2-.1-.3-.4-.3-.4 0-.8 0-1.2.2-.7.2-1 .6-1.3 1.3a6.3 6.3 0 00-.2.9c0 .3-.4.4-.7.6-.4.3-.7.3-1.1.3a6.9 6.9 0 00-1 .3v-.3l.6-1.1c.4-.5.3-.8-.3-1a2 2 0 00-2.4.8l-.7 1.6c-.1.3 0 .5.3.5.5.1 1.2 0 1.6-.2v.9l-.4.6c-.2.3-.4.4-.7.3a15.8 15.8 0 01-1.6-.9c-.6-.3-1.2-.6-1.8-.6a.9.9 0 01-.3 0c-.2 0-.2-.1 0-.2v-.6L26.5 3l-.3-.7.8.3.2 1 .4.6c.1.1.3.2.4.1 0 0 .2-.1.2-.3 0-.3-.4-1 .2-2.3.3-.6 1.2-1.7 1.7-1.7.3 0 .6.1.7.6l.3.8c0 .3.2.3.4.3.5 0 1.3-.4 1.9-.4.4-.1.7.9.9 1.2.3.5.4 1 .8.4a48.5 48.5 0 011.4-2c.8-.4 1.8-.5 2.6-.4.2 0 .3.1.2.4v.7h.3c0-.2.3-.3.4-.4l.3-.4c.5-.5 1-.8 2-.8.5 0 .9.1 1.3.3.3 0 .4.1.3.4l-.3 1c-.1.4 0 .5.4.7l.8.6.4-.1c.4-.9 1.2-1.7 1.9-2.1.3-.2.4-.2.5.1l.4 1.4V3l.4-.5.7-.7a3 3 0 011.7-1 5 5 0 012 .3c.3 0 0 .4-.2.7 0 .2-.2.3-.3.4 0 .2-.1.2-.3 0l-.5-.7c-.3-.3-.9-.1-1.3.1a5.4 5.4 0 00-2 2c-.2.5-1.2 1.7-1.6 2h-.3v-.2a7.2 7.2 0 001.2-3.7c-.2 0-.4 0-.6.2a2.3 2.3 0 00-.7.7 7.2 7.2 0 00-1 3.2c0 .2 0 .5-.3.6l-1 .5h-.2c.2-.9 0-1.5-.5-2.3 0-.2-.2-.2-.4-.2l-.4.3c-.8.7-1.2 1.7-1.2 3 0 .1.2.1.4 0a1.4 1.4 0 00.3-.4l.7-1.3.3-.2a.5.5 0 010 .3l-.1.8c-.1.3-.5.8-.9 1l.1.4c.9 0 1.4 0 2.1-.5.8-.4 1.3-.7 1.7-.7l1.5.5-.3.2-.9.7c-.4.3-.5.4-.5 1.1l.2.9.2.2.2-.1 1-1.3.2-.1v.2c0 .5-.3.9-.6 1.2l-.2.3c-.3.3-.3.4 0 .8s.3.9.2 1.4a21.6 21.6 0 00-.2 1.4l-1 .4-.8.6c-.4.3-.4.5-.4.6l.2.2.4.2c.4.1 1.2 0 1.4-.5l.1-.5.3.1c.2.5.3.9.7 1.2l-.3.4c-.2.4-.3.6-.6.6h-.3c-.2 0-.4 0-.4.3V19c0 .3-.1.6-.4.5-.6 0-1-.5-1.7-.4-.5 0-.8-.1-1.1-.3l-.7-.4-2.6.5-2.8.5-2.1.4c-.2 0-.2.2-.3.4 0 .6-.3 1.1-.4 1.7l.2.3.2-.2.4-.6c.2-.3.9 0 1 .4.1.2-.2.3-.2.6 0 .2.4.4.4.7l-.2.5c1 .6 1.2 1.1 1.2 2 0 .2 0 .3.2.4l.4.5c.4.5.8 1.3 1.1 1.4h.9v.2c0 .2-.3.5-.6.5-.7.3-1-.8-1.4-1.3a5 5 0 00-.6-.8c-.3.3-.7 1.6-.7 2.3l.3.8.7 1.5c.3.4.7.5 1.1.6.4.2.7.2 1 .1h.4V31l.3-2.4.1-1.6c0-.3.3-.8.7-1.1.4-.3.6-.7.5-1.2a1 1 0 01.2-.5c0-.3-.2-.3-.5-.3-.2 0-.3-.2-.2-.5l1-1.3a3.8 3.8 0 00.4-.7c0-.4 0-1 .3-1h1.4c.4 0 1.1.4 1.3.6v.3l.7.6c.3.3.6 1.1 0 2.5.3.2.3.4.3.7 0 .3 0 .3.3.4.3.1.5.3.7 1 .2.5.9 2 1.3 6-.1 1.1-.3 2-.6 3 .3 1.9.6 4.1.8 7.3l.3 5.6c.5 0 .7.2.8-.3l.1-.4a.6.6 0 01.2-.2.5.5 0 01.2.2l.3 1 .3.6.2.2h.2a2 2 0 000-.5l.1-.8c0-.1 0-.2.2-.3l.2.2.5 1c0 .2 0 .3.2.4h.2V48l-.2-.7.1-.3a.6.6 0 01.2.1l1.5 2 .1.2h.3a.4.4 0 00.1-.3l-.1-.5v-.3l.4.2.5.6.3.5.3.2a.5.5 0 000-.4L56 49c.2 0 .4 0 .5.2l.3.4c.2.3.5.6 1.2.7v.1l-.6.3h-2.5a2.9 2.9 0 00-1.9.4c-.4.2-.8.2-1.3.2H49c-1.6-.1-2.2.1-3.8.3H44c-.7 0-2.1-.3-2.1-.7l.2-.8c0-.2 0-.2-.3-.3a5.6 5.6 0 00-.5 0c-.8-.1-1.7 0-2.5.1-.5 0-1 .2-1.4.3-1.2.1-1.8 0-2.4-.5-.4-.4-.6-.5-.9-1-.5-.7-1.4-1.5-2.4-2.2-1-.8-2.2-2.3-3-3.3-.2-.2-.5-1.2-.6-1.5a3 3 0 01-.2-1.3l.4-.2 1.1-.3c.2 0 .4-.2.4-.3v-.1l-.1-.1h-1.2L28 39c0-.2.2-.3.3-.4.7-.1 1.2-.3 1.6-.6a.4.4 0 000-.2l-1.4-.1-.4-.3c0-.2.2-.2.3-.3l.8-.4.6-.4v-.2c-.5 0-1 0-1.6-.2a1 1 0 01-.1-.1.7.7 0 01.2-.3c.3 0 1-.1 1.3-.3a.5.5 0 00.2-.2.6.6 0 00-.2-.2 7.8 7.8 0 01-1.3-.2c-.1 0-.2 0-.2-.2l.2-.2 1.2-.2a.8.8 0 00.3-.3l-.3-.2-1-.2a1.6 1.6 0 01-.3-.1V33l.3-.1.7-.2c.2 0 .4-.2.4-.3a.2.2 0 000-.2h-1.2L28 32l.3-.2c.3 0 .7-.2 1-.4l.1-.2a.7.7 0 00-.2-.1 11.3 11.3 0 01-1-.3.7.7 0 010-.3l.1-.2h.6a3.3 3.3 0 00-.3-.6.5.5 0 00-.2-.2c-.3-.2-.7-.3-1-.6-.6-.3-1.2-.7-1.7-1.2a3.9 3.9 0 01-1.3-2 4.4 4.4 0 010-1.5c0-.4.3-.8.5-1.2v-.3a6.6 6.6 0 00-.9-1 1.6 1.6 0 00-.6-.3L22 21c-.4-.1-.7-.2-1-.1a1.9 1.9 0 00-.4.7l.3 1.5c.4 0 1 .2 1.5.5.4.3.5.4.7 1 .4 1.2.5 2.7.7 4.3.3 1.6-.5 2.9-2.1 3a3 3 0 01-1.1-.2c-.3 0-.6-.2-.7-.6l-.5-1.3c0-.4-.2-.8-.3-1l-3.5 1.2-3 1.5c-2.1.8-4.4 1.4-6.5 1.4-1.1 0-2.4-.3-3.2-.6-.8-.3-1-.6-1.2-1.6a10.8 10.8 0 01.7-5.3c.3-.6.6-1 1-1.2a6.5 6.5 0 011.4-.4c.5-.2.9-.2 1.4-.2l1.1.2c.6.3.7.7.7 1.3v1.6c.8.1 2.3 0 3-.1a8 8 0 002.1-.8c.8-.3 1.8-1.1 3-1.7zM40 37.5l.2 1.2v2.1c-.2 1.2 0 2.5-.2 3.7l-.2 2.4c0 .3 0 .4.3.4.6.2 1 .2 1.3.2.9 0 1.5-.4 1.4-.9l-.2-1c-.2-1-.2-1.4-.2-2.4h.2l.7 2.8c.2.6 0 1.7.2 2.3 1.5.2 3.3 0 4 0 0-1.3 0-2.6-.5-3.1l-1.3-1a6.9 6.9 0 01-1.6-1.7c-.7-1-.8-1.4-1.4-2.4l-1.3-2.3a4.3 4.3 0 00-.5-.7l-1.4-.3c-.7 0-1.1-.1-1.5-.5-.3-.4-.4-.6-.2-1 0-.3 0-.4-.2-.6-.2-.3-.2-.5 0-.7.5-.4 1.1-.9 1.8-1a.3.3 0 00.1 0l-.1-.6-1.2.2c-.9 0-1.6-.4-1.9-1.5l-.8-2c0-.3 0-.6.2-1l-.7-1c-.5-.2-1-.4-1.3-.8-.2-.2-.3-.2-.4-.1l-.3.3c-.2.2-.5.2-.8 0-.3 0-.5-.4-.5-.7 0-.4.3-.7 0-.9-.2-.3-.5-.7-.1-1l.4-.1a1 1 0 00.5-1.1c0-.4-.2-.5-.6-.5-.5 0-.7-.3-.7-.6 0-.4.4-.6.7-.5.1 0 .3 0 .4.2 0 .1.1.3.3.3.5 0 1-.6 1-1.1 0-.2-.2-.3-.6-.2-.6 0-1.4.3-2.2.6-.4.2-.5.5-.2.9l.1.3c.1.2.1.3 0 .4l-.3.1c-.2.2-.2.4 0 .7a.9.9 0 00.1.2c.2.2.2.3 0 .5s-.2.5-.1.8l.2 1.8v2c0 .4.3.8.7 1.3l1.5 1.7a4 4 0 011.3 2.6c0 .5.2.7.7 1 1 .3 1.4.8 1.5 1.6.2 1.4-.5 2.7-1.7 2.6-.6 0-1-.5-1-.8 0-.3.2-.7.5-.8a.8.8 0 01.3 0 .6.6 0 010 .2l-.1.4v.5c.2.1.4.2.7.1.2 0 .4-.3.6-.6.5-1 .2-2.2-.9-2.5h-1.1c-.7.5-1.3.7-1.9 1.2a.4.4 0 000 .4 56 56 0 00.4 6.8l.2.8.3.3.3-.3.5-.8h.2l.1.1V46l.3.3.2-.3.1-.5a.4.4 0 01.3-.1v1l.3.2.2-.3.3-.5.7-.6a.5.5 0 01.3 0 .6.6 0 010 .2l-.5 1.2-.2.5h.3s.2 0 .2-.2v-.2l.3-.3a.5.5 0 01.2.3l.2.5.3.2.2-.1.2-.6.3.1.2.4 1.2.1v-.5-3l.3-3.2.2-3h.2zm15-20.4l-1.5-.1c-.3 0-.9 0-.9.3l.3.3c.7.5 2.8.6 3.6.5a1.6 1.6 0 000-.6c-.3-.6-1-1.2-1.7-1.4-.7-.2-1.6-.2-2.2 0l-.2-.5a7.2 7.2 0 000-2.8c0-.5-.1-.7-.4-1-.1-.2-.3-.2-.4 0a3.2 3.2 0 00-.5.4c-.7.9-.6 1.4-.5 2.7l.4.1c.3 0 .3 0 .3-.4l.1-1a.8.8 0 01.1-.2l.3.2v.4c0 .7-.3 1.2-.3 1.5 0 .1.5.3.4.5 0 .2-.8.3-1.3.4-.3-.4-.6-.8-1.2-1-.3-.1-.7-.2-.4-.4l.4-.2c.7-.3.5-.7.4-1.4 0-.2-.1-.3-.3-.3-.4 0-.6 0-1 .2l-.4.4-.8.9H47v-.2l.6-1.6c0-.3.2-.4.4-.4a3 3 0 003-.7c.2-.4.2-.5-.2-.8-.6-.5-1.4-.8-2.3-.5a1 1 0 00-.4.3l-.2.4h1.1l.3-.1.2.1-.2.2-.6.1-1.2.3c-.2.1-.3 0-.3-.2 0-.3 0-.6.3-.8.5-.4.8-.9 1-1.5 0-.4-.3-.9-.4-1.2v-.2l1.3.6c.2 1.1.9 1.9 2 2.2l1 .4c.4 0 .6 0 .6-.4v-.5l.7-.2c.6 0 1.2.3 1.8.5l.2.3h-.3c-.5 0-.9-.2-1.3-.3-.3 0-.5.1-.6.4.2.3 1 .7 1.4.8.4.1 2 .3 2-.1a5.9 5.9 0 00-.2-1.3c0-.4-.4-.6-.7-.7-.7-.2-1.2-.3-2-.3h-.3l-.8.3V9c-.2-.7-.5-.8-1-1v-.5c.5-.3 1-.7 1.2-1l-.7-.4c-.6-.2-.7-.5-1.2-.7a3 3 0 00-1-.2c-.4 0-.9 0-1 .2 0 0 0 .2.2.3.3.3 1 .4 1.3.7h.1l-.1.1a3 3 0 01-1.3-.3l-.4-.3c-.3-.1-.4 0-.6.3-.1.3 0 .4.3.5.7.4 1.2.7 2.1.8l.2.4a22.7 22.7 0 01-1.1-.1 3.4 3.4 0 01-.7-.2l-1.5-.8-1-.3c-.1-.1-.2-.2 0-.3l2.7-1.7h.5c.4 0 .6.2 1 .3.3.1.5.2.6 0a4 4 0 01.5-1.5c.4-.6 1-.9 1.7-1.4C54.1 1 55 0 55.3 0c1 0 1.8 1.6 2 2.2.1.5-.6.9-.1.9.4 0 .8 0 .8.4 0 .6-.2 1.3-.5 1.7s-.7 1-1.2 1.3v.2c.8.5 1.7 1 1.7 1.8 0 .5-.1.8-.4 1-.2.2-.4.4-.4.7v1.5c0 .4-1.2.5-1.3.7a5 5 0 01-.4 3l.3.5c1.2.9 1.4 1.7 1.5 2.3-.3.4-.9.7-1 .7-.9 0-2.6-.6-3-.7-.1.3 0 .5.1 1 .2.4.5.7.5 1.2 0 .2 0 .5-.6.6a4 4 0 01-2.7-.8l-.4-.2c-.3-.2-.6 0-.7.2l-.2.6c-.1.4-.3.4-.7.3-1.3-.3-1.9-1.6-1.9-2.8l.1-.2.2.1c0 .3 0 .5.2.7 0 .3.1.7.3 1 .3.4.6.7 1 .7.2 0 .3-.1.4-.4.3-.5.6-1 .5-1.6 0-.2-.1-.5-.3-.7l-.4-.4.3-.2c.6.3 1 .2 1.3 0 .3 0 .4-.2.5-.4a20.1 20.1 0 012-.4c.8 0 1.6.1 2.3.4v.2zM20.9 39c.4 0 1 .2 1 .7a1.4 1.4 0 01-.1.2.3.3 0 01-.1 0c-.2-.4-.5-.6-1-.5a2 2 0 00-1 .6c-.2.2.1.3.4.5l.5.3-.3.6a4 4 0 01-.6-.3l.3-.4h.6c0 .5-.7 2.2-.4 2.3.9.1 2-1 2.2-2.7 0-.6.3-1 1-1.1.7-.3 1-.7 1-1.5-.1-.5.1-.3.4-.7l.2-.3c0 .2.2.4.1.6-.2.6 0 1.2.3 1.8l.7 1.7.4.2c.5 1 1.2 2.7 2 3.4.7.6 1.4 1.6 2 2.2.5.3.7 1.2 1.2 1.4.3 0 .3.3.3.6s0 .4.2.4h.7c.2-.1.4 0 .3.2 0 .1-.1.2-.3.2h-.7l-.3.1.1.3 1.2.3.2.1-.2.3a1.2 1.2 0 01-.5 0c-.3 0-.7-.3-1-.4l-.3-.3H31v.5l.1.3-.3.1-.9-.6c-.3-.2-.6-.2-1 0l-1 .7c-.4.2-.8.7-1.3.7-.3 0-1-.5-1.2-.6l-1.4-.3c-.5-.1-1 0-1.4.3l-2 .3h-3a4 4 0 00-1.2.2H16c-.3 0-.6 0-.8-.2a1.1 1.1 0 00-.9-.1h-1c-.3-.4-1-1-1.3-.9-1.2.2-1.8 1-3 .6-.8-.2-1.3-.4-2.1-.1h-1c-.3 0-.4 0-.3-.4v-.1c0-.3-.2-.6-.5-.5-.4.1-.6.5-.9.6-.5.3-1 .2-1.7 0-.4-.2-.8-.1-1.2.1-.3.1-.7.8-1 .8L0 51v-.3c.1-.3.5-.6.7-.7.7-.3 1.4-.4 2.2-.3.4.1.8.2 1.1 0 .3-.1.6-.1.8-.3.5-.2.9-.4 1.4-.2.4-.2.5-.3.7-.6v-1.4l.5-1.2c0-.2.2-.2.3-.2.4.5.8 1 .6 1.5-.1.4.6.6.5 1-.1.2 0 .4.2.4h.2c.2 0 .2-.1.2-.4a8 8 0 00-.7-3.3l-.3-.8c-.3-.5-.2-1 0-1.5l.3-1a2 2 0 011-1.1l.3.1c.7 1 1 2.3.6 3.6l-.2 1.1v.3l.2-.2c.4-.5.8-1 1-1.6.3-.6.8-.8 1.4-1 .6 0 .8 0 .6.6l-.3 1a2 2 0 01-1 1.4c-.3 0-.6.3-.8.5a1.4 1.4 0 00-.3.2v.3h.5c.2-.3.5-.4.8-.6l1-.6c.2 0 .2 0 .2.3s0 .7-.3.8l-1.1.3a2 2 0 00-.5.4l-.4.8v.3h.3l1-1c.3-.2.4-.1.5.2a.9.9 0 00.2.4l.4-.3.2-.4c0-.3.5-1.5.8-1.9l.3.1V47c0 .5.1.6.5.4l1-.5.2-.1h.3v.3l-.4.5v.4h.3l.7-.4h1.1l1.1.4c.3 0 .7 0 1-.2a9.3 9.3 0 011.5-.6 5 5 0 002-1.2l.4-.3c.2-.1.3-.6.3-.7V43l.2-.4h.2v3.5c0 .2-.3.5-.5.5-1.2.5-2.5 1-3.8 1.3-.6.2-1.2.1-1.8.1H18c-.4 0-.9.4-1.3.4l-3 .3-2.7.7a1.6 1.6 0 00-.6.3l-.1.2.3.1h.6A33 33 0 0113 50l.4.2c.3.2.6.2 1 .2.3-.1.6 0 .9.2.5.4.6.4 1.2.1.5-.3 1-.3 1.5-.2.6 0 1.2 0 1.8.2l1.4.2c.9 0 1.6-.1 2.1-.8l.8-1.1c.2-.3.4-.4.7-.4l2-.2c.3 0 .5.4.5.6 0 .2-.1.4-.3.3h-1.5c-.5-.1-.9 0-1.2.4-.2.2-.1.3.1.4h.4c.2 0 .3.2.4.4 0 .2.4.3.9.3l1.6-.1c.2 0 .4-.4.6-.6.4-.5.6-.7 1.3-.5.5 0 .8-.4 1.2-.4.5 0 .3-.7.1-1a5.4 5.4 0 00-.7-1c-.7-.5-1.2-1.5-1.8-2.3-.5-.5-1-.8-1.4-1.4a33.4 33.4 0 01-.9-1.6l-.6-1.2-.6-.9c-.3-.3-1 0-1.4.1l-.4.3c1 .8 1 2 .7 2.8 0 .3-.2.3-.5.2l-.7-.3H22l-1.8 1c-.3-.4-.8-1.3-.8-1.7 0-.4.2-.7.3-1a7.5 7.5 0 01-1-.6v-.3c.7-.6 1.5-1.2 2.2-1.2zM2 30.2c.1.6.4 1 1 1.3.7.4 1.8.5 2.7.6l3.6-.3c1.9-.4 4.1-1.2 5.8-2a16 16 0 013.5-1.4 8 8 0 013.8 0c.6 0 .7 0 .7-.4l-.2-.8c-.1-1-.1-1.8-.5-2.7 0-.1-.2-.3-.5-.4-.3-.2-.6-.3-1-.3a6.5 6.5 0 00-1.9 0 9.7 9.7 0 00-2.9.9l-2.7 1.5a7.9 7.9 0 01-4 1.1l-2.6-.1a9 9 0 01-3.8-1c-.2-.2-.4-.1-.5.2l-.2.7c-.2.8-.4 2-.3 3.1zm44.5 10.5a17.5 17.5 0 01-1.8.1l.2-.2c.5-.2 1-.4 1.3-.7.2-.2.2-.3.2-.5a8 8 0 01-2 .6h-.2l1.7-1.2c.3-.2 0-.3 0-.4l-1.8.6H44l.3-.3 1.7-1v-.2h-.3l-2 .2h-.2a.2.2 0 010-.1 3.6 3.6 0 001.1-.8c.1-.2.1-.3 0-.4l-.3.2-1.1.1v-.2l.8-.5.5-.4v-.2a7 7 0 01-1.3.3.7.7 0 01-.3 0l.1-.2 1.4-.7c.2-.1.3-.3.3-.4h-.2l-1.3.4-.3-.2.2-.2 1.8-.8 1-.8.6-.6v-.1c-1 .5-1.3.8-1.6 1a8.7 8.7 0 01-1.6.8.4.4 0 01-.2-.1.8.8 0 010-.2c.2 0 .5-.4.7-.7l1.8-.9.9-.6V31l-2 1V32v-.3c.5-.3 1.2-.8 1.7-1.4v-.2l-.3.1-1 .4h-.1l.1-.4a6 6 0 001.3-1.3v-.4c-.4.3-.9.5-1.3.6h-.1v-.2c.5-.5.9-.8 1.2-1.3v-.2l-1.1.3h-.2v-.3l.9-1v-.2a7 7 0 01-.7.1c-.1 0-.2 0-.3-.2l.3-.1.4-.3a.6.6 0 00.2-.2l-.3-.1-.9.1c-.6.2-.6.2-.7.4l-.7 2.2c0 .2-.2.4-.4.5-.3.1-.2.3-.3.5-.1.6-.2.6-.4 1l-.6 1h-.2v-.7l-.3-.9v-.4l.1-.9.1-1.7-.1-.1a.4.4 0 00-.1.2l-.3 1.2c-.2.9 0 1.6 0 2.5-.1.7-.3 1.4-.2 2.1v.4l.7-.2c.5-.2.9-.2 1.4-.7.3-.3.3-.9.4-1.4.2-.6.4-.8.6-1l.2.1-.3.9c-.1.3-.3.8 0 .9h.3v.2c-.3.3-.6.7-2 1.1-.2 0-.6.5-.6.7a3.6 3.6 0 000 .9c.2 1.4.9 2.8 1.7 4.2.7 1.1 1.2 2 2 2.8.3.3.7.5 1.3.3l.8-.5v-.3zm-20-21.1c0 .5 0 .7-.8.5L25 20c-.3-.1-.6-.2-.8-.5-.3-.4-.7-.4-1 0l-.3.2-.2.2v-.3c0-.4.2-.6.5-.8l.8-.3c.7-.2 1-.6 1-1.4l.1-1.5c0-.3 0-.4-.4-.3L23 16a.7.7 0 00-.4.4l-.4.9-.1.1-.2-.1-.4-.6a10.1 10.1 0 00-.4-.7c-.3-.3-.3-.4 0-.6l1-.8c.4-.4.6-1 .6-1.6V12c0-.4 0-.5.5-.4.2 0 .5 0 .7.2l1.3.6c.2.2.4.4.4.6 0 .4-.2.6-.5.5a9.2 9.2 0 00-1.4-.5c-.3 0-.5 0-.6.3 0 .5.4.5.4.7-.2.4-.8.5-.9.9 0 .3 0 .5.3.4l.9-.3 1.2-.6c.5-.2.8-.1.9.5l.7 4.1v.6zm12-4.3a2.2 2.2 0 01.3-1.1c.2 0 .4 0 .5.2.3.7.9 1.4 1.7 1.8.2.2.5.2.7.2l.2-1.3c0-.5-.2-1-.6-1.3-.3-.4-.8-.7-1.2-1l-.5.1v.4c.2.3.7.6.8.9v.3a.5.5 0 01-.2-.1 8.2 8.2 0 01-.6-.5 5 5 0 01-.8-.8c-.2-.2-.4-.2-.5 0-.4.7-.7 1.4-.7 2.2-.2 1 .3 1.9 1.1 2.3.4.2.7.1.9-.2l.4-1V16l-.7-.7a1 1 0 00-.3-.2.4.4 0 000 .2v1a.6.6 0 010 .2.6.6 0 01-.4-.4l-.1-.7zM4.4 3.4l.5.7c.3.4.4.8.5 1.2.1.3.3.3.5.2a.8.8 0 00.4-.7A2.3 2.3 0 006 4c-.2-.7 0-1.4.6-1.9.3-.1.4-.4.4-.7L6.7.4c0-.2-.3-.2-.4-.1-.8.4-1.7 1.5-1 2.5V3A1.7 1.7 0 015 3L3.6 1.6a1.9 1.9 0 00-.6-.3c0 .1-.2.5 0 1.3 0 .7.2 1.4.7 2.4l.5.6.6.2v-.6a16.3 16.3 0 00-.4-1.4l-.1-.4zm50.5 2.9l1.1-.4c.9-.3 1.4-.9 1.6-1.8.1-.3 0-.4-.3-.5l-.6-.1c-.5-.2-.6 0-.8.6-.2.4-.4.9-.8 1.2-.1.1-.6-.2-.7-.3.8-.5 1.4-1.3 1.8-2.3 0-.1 0-.3-.2-.4a2 2 0 00-.9 0c-1 0-2.5 1-3 2.2-.1.1 0 .4 0 .4h.6l.1-.2c.4-.7 1-1 1.7-1.3h.2a.3.3 0 010 .2 1 1 0 01-.3.2l-.7.5-.5.4V5l.3.1h.4l.4.7c.1.2.3.4.6.4zM36.4 6c0 .3-.2.5-.4.4-.6-.2-1-.8-1.6-1-.2-.1-.3 0-.4.3l-.2 1.4c0 1 .5 1.4 1 1.9v.3l-2 1c-.1.1-.4.2-.6 0-.2-.1-.2-.3-.2-.6l.7-2.9c.4-1.5 1-2 2.1-2.1h1c.3 0 .5 0 .5.3v1zm1.4 6.7c0-.7-.6-1-.8-1.6-.3-.6-.5-.6-1-.1s-.9 1-1 1.7c-.3.7-.2 1.4 0 2.1 0 .2.1.5.4.4a.4.4 0 00.2-.4c0-.6.1-1.2.4-1.6l.3-.3v.4l-.2 1.3v.8c.3.3.4.3.5.1.6-.9 1.2-2.2 1.2-2.8zm-31.2 2c0-.7-.2-1.2-.4-1.8-.2-.6-.6-.9-.8-.9-.3 0-.8.6-1 1a3 3 0 00-.1 1.3c0 .8.2 1.5.7 2.2 0 .2.3.4.5.2l.7-.7c.2-.4.4-.9.4-1.3zm27 19.3c-.2-1.2-1-2-1.8-2.6l-.4-.3H31v.3l.2 2.4.2 1.7c0 .3.2.4.5.3l1.1-.6c.3-.2.6-.4.4-1.2zm11.7-11.7c-.2-.5-.5-.7-1-.8h-.6l-.9-.2c-.3 0-.5.3-.6.7v.2l.6.2.3.4c0 .1-.2.3-.5.3s-.3.3-.2.6c0 .3.1.6.4.9l.4-.3c.2-.2.2-.4.2-.6 0-.7.3-1.1.8-1.6l-.2 1.1c-.1.8-.4 1.4-1.1 2h.3a.8.8 0 00.7-.2c.3-.3.5-.6.6-1l.2-.4.1.3v1l.4-.3c.3-.7.4-1.7.1-2.3zM54.7 7H54s-.2.4 0 .4c0 .1.1.2.3.2.4 0 .7 0 1.2.2l.3.1-.2.1c-.7.1-1.2.2-1.8-.2l-.2-.1c-.2-.1-.3 0-.2.2 0 .3.3.6.9.8.4.2.8.4 1.2.4L57 9c.3 0 .6-.2.6-.4l-.1-.6-.4-.4c-.6-.6-1-1-2-1 0 0-.2.4-.4.4zm.6 6.7l-.1-1c-.2-.7-.8-1.2-1.5-1.2-.4 0-.5 0-.4.4l.5.7c.2.4.4.7.4 1a1 1 0 01-.1.4c-.3-.1-.4-.4-.4-.5-.1-.3-.1-.5-.3-.7 0-.2-.1-.2-.2-.2s-.2 0-.2.2c0 .8.1 1.8 1 2.5l.6.4c.2.1.3 0 .4-.2a6 6 0 00.3-1.8zM6 9.7L5.8 11c0 .4.2.7.6.8 1 .5 2.2.6 3.3.6l.2-.2-.1-.2h-.3L8 11.3a1 1 0 01-.4-.2c-.1-.2 0-.4.2-.4l.5.1 1 .5c0 .1.1.2.2 0 .1-.1.2-.2 0-.4l-.7-.6C8 10 7.2 9.7 6 9.8zm23.1 5.8c0 .8 0 1.7-.2 2.6l-.3.3-.3-.3c-.4-1.1-.8-2.2-1-3.4L27 14c0-.3 0-.4.3-.3.6 0 1 .3 1.6.5l.1.4v.8zM4.2 20.4v-.6l.2-1a1.4 1.4 0 000-.4l-.7.1c-.2.1-.3.3-.3.7v1l.2 1.6c0 .3.2.4.4.2l.5-.5 1-1.2c.4-.4.4-.8.3-1.2-.1-.3-.3-.4-.5-.4-.3 0-.4.2-.5.4 0 .3-.2.5-.3.8a3 3 0 01-.3.5zm46.2-2h1c.5.2.7.5.8.7l.1.3a1 1 0 01-.9-.1 2.9 2.9 0 00-.5-.4c-.3-.1-.7-.2-1 0 0 .2.3.6.5.8.7.5 1 .6 1.6.6h1l.1-.5c0-.6 0-1.2-.5-1.7-.6-.6-1.5-.5-2-.3a1.2 1.2 0 00-.4.2.6.6 0 00.2.3zm-20.8-16h.1v.3c-.1.5-.4.9-.8 1.3-.2.1-.2.4 0 .5.2.3.5 0 .7-.1.4-.5.6-1 .8-1.6.3-.6.3-1.5 0-2-.2-.2-.5-.3-.7-.1-.6.6-1.2 1.5-1.2 2.4l.1.4.5-.4.5-.6zm12.2 24.3h.2l.1 1.1v.3l.3-.2.1-.7c.4-1 .1-1.8-.3-2.8 0-.2-.2-.2-.4-.1-.1 0-.2.2-.1.3v.4l-.4 1-.1.5-.1 3.6v.1a.3.3 0 000 .2.6.6 0 00.2-.1l.2-.6c0-.6.3-.6.3-1.2v-1.8zM8 3.8a.5.5 0 010-.2h.6c.3.1.4.1.5-.1.2-.5.1-.9-.3-1a2.3 2.3 0 00-.8 0l-1.2.3c-.4.1-.5.5-.2.8.4.4.8.9 1.3 1.2.4.4.8.4 1.3.3.2 0 .3-.1.3-.3a.5.5 0 00-.1-.4 1.3 1.3 0 00-.3-.2L8 3.8zm-.7 27c0 .2-.1.3-.4.3a4.1 4.1 0 01-1-.1c-.3-.1-.3-.2-.4-.4l.1-2 .5-.3 1.1.2c.2 0 .4.4.4.5v.6c0 .5-.2.9-.3 1.1zm33.4 18l.7.2c.4.1.7.2 1 .1.2 0 .4-.2.4-.5 0-.2-.2-.4-.4-.5l-1.9-.4c-.3-.1-.6-.1-.9.1-.4.4-.9.6-1.4.7l-.4.1v.3l.1.2h1.4l1.4-.3zm3.3 2c.5 0 .9-.1 1.2-.3l.8-.5.6-.2c.3 0 .5-.3.5-.4 0-.3-.2-.3-.4-.4l-1.5-.2h-.5l-1 .8c-.1.1-.6.3-.7.6-.2.1-.2.3.2.4l.8.2zM26.9 11.7c0-.3.4-.7.7-.6a.3.3 0 01.1 0l.1.6.2.4c.6 0 1.2-.3 1.4-.8.4-.5.6-1 .8-1.5.1-.2.2-.4.4-.3.1 0 .2.2.1.4l-1 3c-.1.3-.2.3-.5.2l-1.7-.6a.9.9 0 01-.6-.8zm12.6 24.7h.3a1 1 0 00.3-.2l.4-.5-.1-2.2-.2-.2h-.9l-1.2 1s-.1.2 0 .2l.2.1.6-.3.4-.2a.3.3 0 010 .2c-.4.4-.7.9-1.2 1.1v.2l.1.2.6-.3.7-.6c.1.1.2.3 0 .4l-.2.2-.6.5v.2h.1c.2 0 .4 0 .6-.2l.5-.5.2.2-.6.7zM14 11.2c0 .9-.2 1.7-.6 2.5a1.7 1.7 0 01-.3.5l-.3-.6-.6-1.7a2 2 0 01-.2-.4l.7-1.1c0-.2.2-.2.3 0l1 .8zm1.5 17.2c0 .3-.2.5-.6.7-.2.1-.5.3-1 .3 0 0-.2 0-.3-.2 0-.6-.2-1.1-.3-1.6l.2-.4c.4-.4.8-.5 1.3-.5l.5.2.2 1.5zM11 22c-.3 0-1 .4-1 .7v.2c0 .5 0 1 .3 1.4.2.2.3.3.5.1.5-.3 1-.6 1.3-1 .3-.2.5-.6.7-1 0-.2-.2-.3-.4-.4-.3-.1-.7-.1-.8 0-.2 0-.3.2-.3.4a3.6 3.6 0 01-.2.6l-.3.4a2 2 0 010-.6c0-.2 0-.5.2-.8zm4.8 27.5a3.8 3.8 0 01-.5 0c0-.2.1-.2.2-.2h.4c.6.1 1-.3 1.6-.4h2.1c.6.3 1.2.5 1.7.1a8.8 8.8 0 011-.6.6.6 0 01.5 0s.2.3.1.4a.5.5 0 01-.3.3c-.9.3-1.8.5-2.8.6-1 0-1.9 0-2.9-.2h-.5-.6zm-12.4-20c0 .2 0 .6.3.8v.2l-1-.1s.3-.3.3-.5l.2-1.9-.2-.3a.4.4 0 01.1-.2c.7.2.8.2 1 .5l.4 1.2a.4.4 0 00.2-.1v-1c0-.2 0-.3.3-.3h.6V28.1c-.4 0-.4.1-.6 1l-.1 1-.1.4h-.3a12.5 12.5 0 00-.8-1.7h-.1l-.1.4a.9.9 0 000 .2zm22 4.8a2.7 2.7 0 000-.6l-.2-.7v-.2c.2-.6.3-1.1.2-1.6a12.6 12.6 0 010-1.9v-.1c.3 0 .4.1.5.3v.6c.1.5 0 1 0 1.6l-.1 3.2.1.5c.1.3 0 .7-.2 1h-.2c0-.5-.4-1-.5-1.6l.1-.1c.2 0 .3-.2.3-.4zm10.4-8c-.4 0-.8-.3-.8-1l-.7.7c0 .2.6.6 1 .7l.7.8.4-1c0-.8-.1-1.4-.3-1.7-.3-.4-.9-.7-1.4-1-.2.2.1.8.7 1.2-.1.4-.1 1 .5 1.3zM6 25.4l1-.1c.3 0 .6-.1.6-.4 0-.3-.3-.4-.5-.5-.8-.2-2.2-.2-3.2.3l-.6.5c-.3.2-.2.4 0 .5l.8.4.2-.8.5-.4c.4-.2.9-.2 1.4-.2h.2l-.1.2-.4.2-.3.1c0 .2.2.2.4.2zm2.2 5.8l.1-.3v-.6-1.5l.2-.2.2.1.9 1V29v-.6c-.1-.3-.3-.5-.1-.5h.8l-.1.5-.2 1 .2 1.3H10a.8.8 0 01-.2 0l-1.2-1.3a.4.4 0 00-.1.2c0 .3.2.7.4 1 .2.1.2.2-.1.3l-.7.1zm13.2.5c.5 0 1 0 1.4-.4.5-.3.7-1.2.5-1.7a.6.6 0 00-.1-.3c-.2-.2-.3-.2-.4.1l-.1.7-.1.4a3.5 3.5 0 00-1 0c-.4 0-1.1.3-1.1.7 0 .4.6.5 1 .5zm4.2-5.2l.2.5 1.4 1.2 1 .5a2.5 2.5 0 011.3 1l.4.4c.2.3.5.5 1 .6h.2c0-.3 0-.3-.3-.5a20 20 0 00-2.4-2 29 29 0 01-1.5-1l-.7-.4-.6-.3zm-15.4 17a63.2 63.2 0 00-.5-1.9l-.2-.1-.1.1-.5 1.4a.7.7 0 000 .4l.7 2 .3.2.1-.3.2-1.8zm2.6-15.7l.1.4v.2h-.2c-.3-.1-.6-.3-.9-.1v.3l1 .4c.4.1.5.3.4.8 0 .4-.4.6-.8.7a1.6 1.6 0 01-.6 0v.4h-.2a4 4 0 01-.2-.3l-.1-.7v-.2c.2 0 .3.3.5.4l.7.1.2-.3-.3-.2-.8-.4c-.3-.1-.3-.4-.3-.6 0-.3.1-.6.5-.7l.5-.2.1-.4h.2l.2.4zM6.4 8.9c-.6 0-1-.2-1.5-.1-.5 0-.9.2-1.3.3l-.2.2.2.2.6.1L8 9.2l.2-.3-.4-.2-1.3-.2-.2.4zm14.3 18.5s-.2 0-.3.2a.8.8 0 01-.3.2l-.1-.1.2-.6c.1-.3.2-.3.5-.2l.2.2c.2.2.4.3.6.2.3-.1.1-.4 0-.5l-1-.5c-.3-.2-.4-.4-.4-.7 0-.2.2-.5.5-.6h.5c.2 0 .3 0 .4-.2.1-.1.3-.2.3 0v.9h-.3c-.2-.3-.4-.5-.6-.4-.2 0-.3.1-.2.3l.4.3.6.3c.5.3.4.6.4.9 0 .3-.3.5-.7.5a1.3 1.3 0 01-.7-.2zm-1-1v.5c-.2.4-.6.6-1 .6s-.6-.1-.7-.5l-.2-1.3-.5-.1-.1-.2.6-.2c.4 0 .4 0 .5.3l.2 1.4c0 .2.1.3.4.3.2 0 .3 0 .3-.3v-1.1l-.4-.5c-.1-.1-.2-.2 0-.3.7-.2.7-.4.8.4l.2 1zM20 29c0 .3.2 1.2.4 1.4l1.4-.3c.4-.1.6-.5.5-.9 0-.3-.2-.4-.4-.5a1.6 1.6 0 00-.3 0c-.6 0-1 .1-1.5.3zM7.4 25.4l-.6.1-.8.1-.8-.2c-.2 0-.4.2-.5.5 0 .3.2.5.5.6a9 9 0 002 .2c.2 0 .2 0 .2-.2v-1.1zm16-14.3l-.8-.3-.2-.3V9.4c0-.2.1-.3.3-.2.3 0 .5 0 .8.2.3.1.8 1 .7 1.4-.2.3-.4.3-.8.3zm-5.7 16.4l-.3.3c-.3.2-1 .3-1.4.6-.2.1 0-.3 0-.5l-.3-1.1-.3-.6c-.2-.2.2-.2.3-.3l.7-.2h.2v.2c-.3.2-.3.3-.2.6v.9l.2.4c.2 0 .5-.2.5-.3V27l.2-.2.1.2.3.6zm1.2-6.9c-.1 0-.2 0-.3-.2l-.3-1.3c0-.2 0-.3.3-.3l1.7.5c.2 0 .2.2.1.3l-1.3 1h-.2zm25.7-16c0-.5-.5-1.4-.7-1.7-.3-.3-.6-.4-1 0a2.6 2.6 0 00-.2.2c-.3.4-.3.5.2.7l.9.5.7.7v-.4zM12.8 43.3a2.9 2.9 0 00-1 .8l-.5 1a5 5 0 00-.3 1h.1c.3 0 .9-.6 1-.6.4-.5.6-1 .8-2l-.1-.2zm44-41.1c-.2-.6-.7-1.3-1-1.6-.2-.3-.3-.4-.6 0a2.5 2.5 0 00-.3.2c-.3.4-.5.9 0 1l1.3.1.5.4.2-.1zM6.2 29v1.3c0 .3.1.3.4.3.2 0 .3-.2.3-.5l.2-1c0-.3 0-.5-.2-.5-.3 0-.6.1-.7.4zm4-13.5a4 4 0 01-1-.3c-.5-.3-1-.8-.9-1.3 0-.2.2-.3.4-.2l.1.1.9 1c.2.1.4.4.5.7zm3.7 12l.2 1c0 .2.1.4.4.3.3 0 .4-.2.4-.4l-.2-1c0-.3-.2-.5-.5-.4-.2 0-.3 0-.3.4zm14.9-19L28 9.7l-.7.7H27v-.2L28 9l.4-.5h.2l.2.1zm20 10.4l-.1.7-.3-.5c0-.3-.4-.8-.7-1.4v-.2c0-.1.1-.2.2-.1h.3l.6 1.5zM51 2.4s.2 0 .3.2v.3l-1.9.8s-.2.1-.1 0c0-.4 1.3-1.3 1.7-1.3zM33.8 24.2c-.3 0-.6.2-.6.5s.4.6.7.6c.3 0 .5-.2.5-.5 0-.4-.2-.6-.6-.6zM7.4 49.4l-.3.2c-.4 0-.5.1-.5.3 0 .2.1.3.3.3.5-.2.8-.2 1.4-.1h.1l.3-.4-.3-.2h-1zm35.2-28.8c0 .1-.2.2-.1.3v.3h.8l1.2.2.2-.1V21c-.4-.2-.9-.4-1.4-.4h-.7zm-22-10a15 15 0 01-.8-.4v-.3l.5-.7h.3l.4 1c0 .2 0 .3-.4.3zM10 20.5c.2 0 .3 0 .2.2 0 .1 0 .2-.2.2a3.5 3.5 0 01-.8.2 4.3 4.3 0 01-1 0l-.4-.2a.4.4 0 01.3-.2l1.9-.2zm5.7-16h-.2l-1.7-1-.1-.2h.2c.4 0 1 .3 1.4.4.3.2.4.4.4.7zm8.1 11.6c.1 0 .2.2 0 .4-.3.5-.3.9-.5 1.5a1.8 1.8 0 01-.2.3l-.2.1v-.2l.2-1 .3-.7c0-.3.2-.4.4-.4zm19.6-6c-.7 0-1.4-.3-2.1-.6a.4.4 0 01-.2-.2.5.5 0 01.3 0l2 .5.2.2a.6.6 0 01-.2.2zM35 22.9a.7.7 0 00-.3-.3c0-.1-.2 0-.4 0a1.8 1.8 0 00-.3.3c-.1.2 0 .4.2.6h.6l.2-.6zM22 13.2l-.2.4a25.5 25.5 0 01-.9 1h-.2v-.3a5.4 5.4 0 01.4-.7l.5-.6h.3v.2zm-11.3-2.8l-.3-.2-.8-1.3-.2-.4.3-.3a.5.5 0 01.1.2l.5 1 .4.7v.3zm-.5 6.6l-.4-.2-1 .2a1.4 1.4 0 01-.4 0l-.3-.1.6-.3c.2 0 1-.1 1.6 0v.4zm40.5-8.5h.2l1.2 1v.1a.5.5 0 01.1.2 1.3 1.3 0 01-.2 0c-.5-.3-1-.5-1.4-1v-.2-.1zM21.5 10v.2l-.2-.2-.2-.6c0-.5 0-.8.3-1 .1-.2.2-.2.2 0V10zm-7.4-1.8v.2l.4 1.7V10.7l-.2-.2-.2-.8-.2-1c0-.2 0-.4.2-.5zm34 7.2l.5.5.7.6v.3H49l-1.2-.9v-.4a.4.4 0 01.1 0zM25.3 5.1h.8l.1.2-.1.2h-1.5a1 1 0 01-.2-.3l.2-.1h.7zM35 7c.4.5.5 1 .6 1.5v.1h-.1c-.4-.5-.7-.9-.8-1.4l.1-.3h.2zM29 41.3l.9-.6c.1-.1 0-.1 0-.2 0-.2-.1-.2-.3-.1-.4 0-.6.2-1 .3-.1 0-.2.2 0 .3l.4.3zM17.2 5.8l.7-.3.8-.4a.4.4 0 01.3.1l-.2.2-1.2.7a2.4 2.4 0 01-.4 0 .3.3 0 010-.3zm-12 9.8l-.1-1a2.6 2.6 0 010-.7l.2-.2.2.2v1.7h-.2zm26.1-12a8 8 0 011.4-.8 5 5 0 01-1.4 1.4v-.6zM25 24.4c0 .3.1.5.3.7l.2-.3v-1.3c0-.2-.2-.2-.2 0-.1.3-.3.6-.3 1zm22 17.4l-1.9.6c.4.5 1.7 0 1.9-.6zM19.6 8c0 .5 0 1.1-.3 1.6l-.2.2v-.3a61 61 0 01.4-1.6l.1.1zm26 35.4h1a.7.7 0 00.2-.3l.1-.5-.5.3a8.1 8.1 0 01-.9.2l-.1.2.1.1zm-3.8-19.8l.4-.8-.2-.3a.8.8 0 00-.2 0c-.1.2-.7.9-.6 1h.6zm-31-7.8l.4-1h.2v1a.7.7 0 01-.2.4.5.5 0 01-.2 0L11 16zm22.6 7.3c-.2 0-.4.2-.5.4 0 .2.2.4.5.4.2 0 .4-.2.4-.4 0-.3-.1-.4-.4-.4zm-.2 2.5c0-.3-.2-.5-.5-.5-.2 0-.4.2-.4.4s.3.4.5.4c.3 0 .4-.1.4-.3zm-1-2.6c0 .3-.2.4-.4.4s-.5-.2-.5-.4.2-.4.4-.4c.3 0 .5.1.5.4zm.2 1c-.3 0-.4.2-.4.4s.2.4.4.4.4-.2.4-.4-.2-.4-.4-.4zm-2.7 18c-.3 0-.6 0-.5.2 0 .2.2.4.4.4s.3-.2.3-.4 0-.3-.2-.3zm-19-38c-.2-.5-.1-1 0-1.7.3.6.3 1.4 0 1.8zm22.5 17.6c-.2 0-.3.3-.3.3l.2.4a.6.6 0 00.3-.3l-.2-.4z" fill="#53565A"/>
</svg>
